<?xml version="1.0" encoding="utf-8"?>
<COLLADA xmlns="http://www.collada.org/2005/11/COLLADASchema" version="1.4.1" xmlns:xsi="http://www.w3.org/2001/XMLSchema-instance">
  <asset>
    <contributor>
      <author>Blender User</author>
      <authoring_tool>Blender 2.91.0 commit date:2020-11-25, commit time:08:34, hash:0f45cab862b8</authoring_tool>
    </contributor>
    <created>2026-03-22T22:19:31</created>
    <modified>2026-03-22T22:19:31</modified>
    <unit name="meter" meter="1"/>
    <up_axis>Z_UP</up_axis>
  </asset>
  <library_effects>
    <effect id="Material_002-effect">
      <profile_COMMON>
        <technique sid="common">
          <lambert>
            <emission>
              <color sid="emission">0 0 0 1</color>
            </emission>
            <diffuse>
              <color sid="diffuse">0.1282395 0.1282395 0.1282395 1</color>
            </diffuse>
            <reflectivity>
              <float sid="specular">0.6972789</float>
            </reflectivity>
            <index_of_refraction>
              <float sid="ior">1.45</float>
            </index_of_refraction>
          </lambert>
        </technique>
      </profile_COMMON>
    </effect>
  </library_effects>
  <library_images/>
  <library_materials>
    <material id="Material_002-material" name="Material.002">
      <instance_effect url="#Material_002-effect"/>
    </material>
  </library_materials>
  <library_geometries>
    <geometry id="Circle_001-mesh" name="Circle.001">
      <mesh>
        <source id="Circle_001-mesh-positions">
          <float_array id="Circle_001-mesh-positions-array" count="651">-0.1802444 1.075329 -0.003170728 -0.8758597 -0.4830808 -0.01543581 0.3269068 -0.963607 -0.01721572 1.083944 0.2654024 -6.27891e-4 -1.320177 -0.2427643 -2.602464 0.4602742 -0.5886847 -3.053537 -0.1087731 0.3654419 -2.729785 -1.375644 -2.164714 -2.73319 0.06246042 -2.229709 -2.671514 -1.820176 -3.183454 -4.496987 -0.03972601 -3.747012 -4.571341 -0.6087728 -2.843416 -5.017083 -1.69121 -3.978468 -3.150957 -0.2452231 -4.023769 -3.238976 -2.320177 -6.602464 -3.757235 -2.125644 -5.822805 -2.741529 -0.6875401 -5.790697 -2.657878 -0.5397256 -7.053536 -3.411316 -1.108772 -6.729784 -4.365442 -2.805102 -8.905651 -0.2952229 -2.504774 -6.983325 -1.261462 -1.058788 -6.919346 -1.185927 -1.039726 -8.571342 -0.2529896 -1.429501 -8.665708 -1.929835 -3.070177 -8.467153 0.9665302 -2.812459 -7.145617 0.6131907 -1.374355 -7.227473 0.6496374 -1.539726 -7.411316 3.053537 -1.929501 -8.663754 1.934553 -2.739507 -6.833714 4.249494 -3.570176 -6.475315 3.842195 -3.312459 -5.790696 2.657879 -1.874355 -5.822806 2.74153 -2.139089 -4.584673 4.8525 -4.02078 -3.204052 4.566038 -3.875644 -3.365084 3.2304 -2.437539 -3.362738 3.14083 -2.539727 -0.9464617 3.411315 -3.108772 -1.270215 4.365441 -4.570177 -0.1578044 2.475312 -4.375644 -1.266808 1.835285 -2.937539 -1.328484 1.770289 -3.039726 0.5713416 0.2529901 -3.429499 0.6657057 1.929836 -4.72294 0.8878208 0.009874045 -4.691211 -0.8490419 0.02153098 -3.245223 -0.761025 -0.02377128 -5.320176 -0.242765 -2.602465 -5.062458 -1.328486 -1.77029 -3.624354 -1.266809 -1.835288 -3.539725 -0.588684 -3.053538 -4.108772 0.3654421 -2.729785 -5.820176 -3.183454 -4.496987 -5.44121 -2.774289 -2.902866 -4.160807 -3.361777 -3.174657 -4.039725 -3.747014 -4.571342 -4.608771 -2.843417 -5.017083 -5.875644 -4.634916 -3.230401 -6.320175 -6.602464 -3.757236 -4.687539 -5.790699 -2.657877 -4.539725 -7.053538 -3.411315 -4.929498 -5.934554 -4.663751 -6.330459 -7.912303 -3.043581 -6.336378 -6.679782 -1.823019 -4.995222 -7.00152 -1.217543 -5.02706 -8.519539 -1.861365 -7.070178 -8.467153 0.9665306 -6.812459 -7.145618 0.6131908 -5.374354 -7.227473 0.6496395 -5.289727 -8.320185 1.51565 -5.858772 -9.077787 0.8514089 -7.570177 -6.475311 3.842196 -7.375644 -5.835286 2.733191 -5.937539 -5.770288 2.671516 -5.789726 -5.983105 4.126555 -6.358771 -6.988499 4.192575 -8.070178 -3.033466 4.467152 -7.875644 -3.365087 3.230401 -6.437539 -3.362735 3.14083 -6.404397 -1.630762 4.010862 -6.858771 -3.148591 5.077785 -8.22294 -0.5507708 3.463193 -8.336377 -1.320218 1.823019 -6.808787 -1.75671 2.212838 -8.820178 0.4969854 0.8165421 -7.124354 -0.7695978 0.6349117 -7.039726 0.5713427 0.2529858 -7.608772 1.017083 1.156583 -8.812458 -0.8543829 -0.613193 -9.320178 -0.2427678 -2.602466 -7.624354 -1.26681 -1.835288 -7.539725 -0.5886881 -3.053542 -7.9295 0.6637507 -1.934555 -8.625002 -1.157299 -4.254411 -9.312458 -2.209305 -2.65788 -9.710275 -2.484356 -4.320181 -7.995223 -2.782461 -3.001521 -7.929821 -3.033466 -4.467153 -9.719192 -4.586816 -4.973846 -9.875646 -4.634915 -3.230402 -8.43754 -4.637262 -3.140831 -8.527059 -5.879613 -4.511979 -10.57017 -7.842201 -2.475315 -10.33919 -6.696115 -1.793525 -8.745223 -6.30711 -2.273493 -8.789727 -8.126558 -1.983106 -9.358772 -8.192577 -2.988497 -9.18754 -7.145618 -0.6131911 -11.07017 -8.467157 0.9665344 -10.87564 -7.2304 0.6349145 -9.289727 -8.320183 1.515649 -9.679498 -9.049066 0.002556383 -10.375 -8.254409 2.842705 -9.558789 -6.902866 1.225711 -11.46027 -7.053534 3.411314 -11.37564 -5.835289 2.733188 -9.93754 -5.770283 2.671519 -9.679824 -6.602466 3.757239 -11.0705 -5.934551 4.663751 -11.96027 -3.747019 4.571343 -11.81246 -3.386809 3.145617 -10.37435 -3.350358 3.227475 -10.27706 -3.990121 4.887822 -11.5705 -2.070164 4.665703 -10.42982 -1.524681 3.842198 -11.5105 0.2442238 2.841601 -12.5956 0.01085692 2.369245 -12.37565 -1.266805 1.835278 -10.93754 -1.328486 1.770291 -10.92982 0.4671594 0.9665317 -12.3205 1.049065 0.002552688 -12.81246 -0.8543835 -0.6131941 -11.37435 -0.7725242 -0.6496369 -12.64123 0.1925719 -2.988503 -13.21027 0.1265573 -1.983104 -11.42982 -0.1578006 -2.475319 -13.37564 -2.164722 -2.733197 -11.80879 -1.787161 -2.243293 -13.82018 -3.18346 -4.496984 -12.18754 -3.386812 -3.145619 -12.10456 -2.117531 -4.607389 -13.87564 -4.634911 -3.230402 -12.28972 -5.515644 -4.320187 -12.67949 -4.002556 -5.049066 -13.97294 -5.861365 -4.519536 -12.55879 -5.225713 -2.902867 -14.57017 -7.842202 -2.475312 -14.31246 -6.657878 -1.790697 -12.87435 -6.741536 -1.822804 -12.90439 -8.511416 -1.160805 -13.35877 -8.19258 -2.988495 -14.72294 -8.887822 -0.009872078 -14.87564 -7.230401 0.6349163 -13.43754 -7.140829 0.6372635 -14.64123 -8.192574 2.988498 -15.21027 -8.126555 1.983102 -13.42982 -7.8422 2.475317 -15.31246 -5.790694 2.65788 -13.87435 -5.822808 2.741531 -15.14123 -4.851409 5.077785 -15.71027 -5.515655 4.320181 -13.92982 -4.966534 4.467159 -15.98349 -2.710238 3.118193 -14.30879 -3.978468 3.150958 -15.64123 -1.011499 4.192572 -16.21027 -2.0169 4.126559 -14.68754 -2.209301 2.657876 -14.42982 -1.524681 3.842198 -16.71028 0.3201835 1.515639 -16.44121 -1.097133 1.225708 -14.99522 -0.9984769 1.217536 -15.02706 0.5195393 1.86136 -16.3205 1.049064 0.002549111 -16.87565 -0.7695963 -0.6349217 -15.43754 -0.8591693 -0.6372634 -15.17982 0.4969925 -0.816551 -16.2605 0.2494921 -2.833718 -17.3456 -0.276221 -2.798882 -17.37565 -2.164715 -2.733193 -15.93754 -2.229713 -2.671517 -15.67982 -1.397535 -3.757244 -17.07049 -2.065448 -4.663753 -17.39122 -5.156589 -5.017082 -17.96027 -4.252984 -4.571338 -17.98349 -5.289759 -3.118195 -16.43754 -4.637266 -3.140829 -16.17982 -4.816551 -4.496993 -18.57018 -7.8422 -2.475317 -16.93754 -6.671515 -1.770286 -16.78973 -8.126559 -1.983107 -17.35877 -8.192581 -2.988493 -18.62565 -7.227472 -0.649636 -19.0956 -8.511414 1.160802 -17.30879 -7.150957 0.02153193 -17.27706 -8.887824 0.009872078 -18.64123 -8.192573 2.988502 -19.12565 -6.741528 1.822805 -17.68754 -6.657876 1.7907 -17.42982 -7.8422 2.475317 -19.71027 -5.515651 4.320182 -19.44121 -5.225707 2.902867 -18.12435 -4.634912 3.230403 -18.02706 -5.861361 4.519539 -19.32051 -4.002548 5.049064 -19.81246 -3.386808 3.145617 -18.17983 -3.183449 4.496992 -19.2605 -1.166282 4.249491 -20.3456 -1.201115 3.723782 -18.49522 -2.738536 2.983326 -20.37565 -1.266809 1.835284 -18.93754 -1.328484 1.770285 -18.67983 -0.2427574 2.602465 -20.07051 0.6637511 1.93455 -21.08394 0.2654087 6.21465e-4 -20.02368 -1.050113 -7.68938e-4 -19.01186 -0.4109739 0.002014577 -19.81975 1.075329 0.003163158</float_array>
          <technique_common>
            <accessor source="#Circle_001-mesh-positions-array" count="217" stride="3">
              <param name="X" type="float"/>
              <param name="Y" type="float"/>
              <param name="Z" type="float"/>
            </accessor>
          </technique_common>
        </source>
        <source id="Circle_001-mesh-normals">
          <float_array id="Circle_001-mesh-normals-array" count="651">-0.06476211 -0.5661346 0.8217649 0.5932006 0.01147514 0.8049729 -0.7353629 -0.01901352 0.6774068 -0.231888 -0.3870497 0.892424 0.6140429 0.08191305 0.7850106 -0.7907149 -0.1017806 0.6036644 -0.2663128 0.3578101 0.8950136 0.1431051 0.8212447 0.5523389 -0.8157712 0.434376 0.3818835 -0.2180568 0.9759302 -0.00338757 -0.1725882 0.7937838 -0.5831987 -0.8707491 0.4875169 -0.06421279 -0.5299915 -0.8474493 -0.03064095 -0.1181713 -0.7939329 0.5964111 -0.875775 -0.4791798 0.05835241 -0.1244254 -0.1384336 0.9825246 -0.8493478 -0.3390982 0.4045007 -0.1497572 0.5664954 0.810343 -0.8485913 0.05197447 0.5264899 0.5939312 0.7609925 0.2610294 -0.7862653 0.5111045 0.3472166 -0.2663072 0.9638148 0.01190233 0.1431048 0.8245695 -0.5473631 -0.8143053 0.5242841 -0.2490647 -0.2180609 0.3703219 -0.9029459 -0.1544547 -0.258157 -0.9536764 -0.8628025 0.1097158 -0.4934921 0.1454554 -0.7943284 -0.5898179 0.5500478 -0.8343954 0.03509706 -0.7458242 -0.6658644 -0.01925748 -0.2089333 -0.7924574 0.5730255 0.6007789 -0.251909 0.7586874 -0.7877438 -0.3460933 0.5095873 -0.2663072 -0.01190233 0.9638148 0.1431048 0.5473631 0.8245695 -0.8183649 0.2426559 0.520958 -0.1782025 0.9789386 -0.09961515 0.1446017 0.8338861 -0.532658 -0.8188279 0.5088147 -0.2657605 0.1244266 0.2480903 -0.9607129 -0.8205481 0.1932802 -0.5379067 0.1275078 -0.4890955 -0.8628602 -0.8194376 -0.2396664 -0.5206557 0.1862582 -0.8991547 -0.3960162 -0.6405336 -0.754217 -0.1444771 -0.8591172 -0.5087561 0.05554503 -0.856149 -0.3707446 0.3599409 0.1042542 0.5106505 0.8534443 -0.8064006 0.4125238 0.4237242 -0.6023526 0.7963921 0.05414062 0.1497586 0.8334842 -0.5318612 -0.8377169 0.4841539 -0.2526366 0.1275082 0.2642943 -0.9559761 -0.8255221 0.2033514 -0.5264614 0.1812247 -0.3616865 -0.9145166 -0.833056 -0.1464623 -0.5334476 -0.5916516 -0.610299 -0.5267671 0.1167055 -0.9812547 0.1533592 -0.8235543 -0.5667067 0.0245372 0.1244259 -0.5968598 0.792639 -0.8137763 -0.386379 0.4341422 0.1849759 0.1197567 0.9754191 -0.8259221 -0.02182149 0.5633618 -0.562991 0.5427871 0.6232362 0.1708785 0.9551677 0.2417752 -0.8387965 0.5173962 0.1694745 0.1789033 0.9170091 -0.3564943 -0.8137697 0.546206 -0.1985898 -0.5287439 -0.04284882 -0.8476992 0.1189631 -0.7914495 -0.599546 -0.8255111 -0.4023333 -0.3958021 0.1789031 -0.9836315 -0.02151596 -0.8014209 -0.5977697 -0.01989817 0.5338725 0.2775416 -0.7987182 -0.80186 0.2525154 -0.5415316 -0.6007789 -0.251909 -0.7586874 0.2089333 -0.7924574 -0.5730255 -0.8450831 -0.3689494 -0.3869253 -0.8187447 -0.4446985 -0.3631812 -0.2512668 0.8778315 0.4077706 0.1835131 0.9807715 0.06641018 -0.9666973 0.2459241 0.07083517 -0.7503797 -0.2640841 0.605962 -0.8819389 -0.2384452 0.406605 -0.6396871 0.1693828 0.7497401 -0.7358142 0.483971 0.4736556 -0.7535407 0.6436424 0.1337946 -0.6894037 0.6434108 -0.332784 -0.6919672 0.2582859 -0.6741439 -0.7552878 -0.27983 -0.5926513 -0.7479062 -0.6162765 -0.246657 -0.7224854 -0.681559 0.1161568 -0.6886281 -0.4725239 0.5500113 -0.6873553 -0.2128415 0.6944358 -0.7322143 0.2743973 0.6233527 -0.7461929 0.6210339 0.2398194 -0.6927257 0.6492663 -0.3139819 -0.7500089 0.2292601 -0.6204245 -0.7410338 -0.2692698 -0.6151121 -0.7473903 -0.616645 -0.2472989 -0.6816985 -0.6822172 0.2643234 -0.6869842 -0.2632575 0.6773096 -0.8293374 0.2849608 -0.4806213 -0.8215466 0.2456796 0.5144928 -0.7026785 0.6684051 0.2438804 -0.733014 0.6147515 -0.2911547 -0.729409 0.2099416 -0.6510662 -0.8327987 -0.45055 0.3216383 -0.666884 -0.321463 -0.6722554 -0.7607528 -0.6072716 -0.2290773 -0.6903187 -0.6787213 0.2505949 -0.7259302 -0.2761684 0.6298862 -0.7853201 0.2410101 0.5702513 -0.6916002 0.6889145 0.2169929 -0.7909029 0.5418669 -0.2843466 -0.6977511 0.2766528 -0.6607623 -0.7542232 -0.3792632 -0.5360102 -0.6774007 -0.7169229 -0.1647723 -0.7356685 -0.6192983 0.2743383 -0.5159259 -0.2183033 0.8283503 -0.7480633 0.3803339 0.5438268 -0.739113 0.6734358 -0.01400828 -0.6404301 0.5045249 -0.5790545 -0.6704466 0.2060353 -0.7127768 -0.6649882 -0.2922542 -0.6872979 -0.7062171 -0.6640698 -0.2454974 0.6998362 -0.5126008 0.4974632 0.5838335 0.6666932 0.4633129 0.6519484 0.2708873 0.7082256 0.689604 -0.5063077 -0.5177828 0.7381736 -0.003540217 -0.6746016 0.6507554 0.2396957 0.7204606 0.6736826 -0.334766 0.6588502 0.5249589 0.08282876 -0.8470878 0.6655948 0.5530702 -0.5010959 0.6683653 -0.4248545 -0.6105625 0.7383512 -0.03689771 0.6734064 0.6831519 0.7021656 -0.2006667 0.686448 0.6803746 0.2566702 0.7010331 0.5262783 -0.4812316 0.6980469 -0.5044909 -0.5081532 0.7499855 -0.2229447 0.6227499 0.6971872 -0.6320586 0.338278 0.6704466 0.2060353 0.7127768 0.6993739 0.7147555 9.15571e-4 0.6766152 -0.2972895 -0.6736548 0.6942769 0.1509165 -0.7037073 0.6908025 -0.5177585 0.5046963 0.685887 -0.7276067 0.01214659 0.688197 -0.03939962 0.7244533 0.6694143 0.4758292 0.5705007 0.7327356 0.6766718 0.0722084 0.6933016 0.6800563 -0.2384454 -0.2227876 -0.9176104 -0.3291763 0.6903107 -0.5216929 -0.5013061 0.4667613 -0.8472753 0.2534928 0.7395378 -0.1295838 0.6605239 0.7703807 0.4842882 -0.414703 0.7506871 0.6606547 -0.002105832 0.7245241 -0.6423666 0.2498601 0.733799 -0.6652838 -0.1376101 0.7324304 0.6803036 0.02707052 0.787168 0.5307807 0.3140676 0.7076107 -0.6690959 0.227152 0.7227004 -0.6347128 -0.2735763 0.7198727 -0.381987 0.5795422 0.6709647 0.3437072 0.6570174 0.8053683 0.01055955 -0.5926808 0.7448931 -0.6662745 -0.03482288 0.6444737 0.5027426 0.5761107 0.7448897 0.4957589 -0.4465004 0.7875486 -0.5117464 -0.3433412 0.7432556 -0.1803052 -0.6442525 0.7810782 0.2511121 -0.5717164 0.8475769 -0.1461255 -0.5101575 0.8620528 0.2333213 -0.449918 0.8675142 -0.4291944 -0.2514188 0.791215 -0.6011708 0.1121282 0.8285143 -0.309804 0.4664608 0.87404 0.4218977 0.2409492 0.7819672 0.6110893 -0.1228709 0.8424187 0.2640512 -0.4696889 0.8647886 -0.1257386 -0.4861384 0.8015494 -0.5085371 -0.3144977 0.5989068 -0.7735675 -0.2071331 0.8437905 -0.4214985 0.3321998 0.8459832 -0.05566638 0.530296 0.7546128 0.4724341 0.455374 0.8646448 0.4898362 -0.1115789 0.8320435 0.3214887 -0.4520496 0.7764687 -0.02621597 -0.6296104 0.6070635 -0.3957464 -0.6891 0.8702218 -0.489557 -0.05520904 0.8437319 -0.4509202 0.291183 0.8194023 -0.2016384 0.5365836 0.8213298 0.4025468 0.4041948 0.8122658 0.5828537 -0.02249252 0.8393972 0.4075214 -0.359637 0.7908258 -0.3417288 -0.5077558 0.749151 -0.6619276 0.02499508 0.819337 -0.4384934 0.3693379 0.8222429 -0.02862679 0.5684164 0.8377107 0.3506305 0.4186875 0.8194962 0.5303287 -0.2172037 0.8111903 0.2003255 -0.5493998 0.8282091 -0.1891601 -0.5275304 0.8818519 -0.4689883 -0.0488612 0.8491041 -0.3684578 0.3784986 0.8174641 0.2118967 0.5355862 0.8121569 0.5442864 0.2101274 0.9397888 -0.1376127 -0.3128255 0.9447485 0.2685068 -0.188028 0.198316 -0.8878139 0.4152796 0.2340802 0.9053749 0.3542639 0.2190682 -0.0310077 -0.9752168 -0.002014219 0.5448285 -0.8385452 0 -0.8314677 0.5555732</float_array>
          <technique_common>
            <accessor source="#Circle_001-mesh-normals-array" count="217" stride="3">
              <param name="X" type="float"/>
              <param name="Y" type="float"/>
              <param name="Z" type="float"/>
            </accessor>
          </technique_common>
        </source>
        <source id="Circle_001-mesh-map-0">
          <float_array id="Circle_001-mesh-map-0-array" count="2556">0.6564532 0.09639233 0.7272175 -0.5078106 0.7762635 0.797419 2.6875 0.2630813 2.75 -0.5467526 2.761679 0.7373006 2.8125 0.2630821 2.906047 -0.09638506 2.916506 0.7511342 3 0.2630801 3.099757 0.1178961 3.074179 0.7373012 3.5 0.5467476 3.599757 0.1178961 3.57418 0.7372981 3.599757 0.1178961 3.724757 0.1178959 3.699179 0.7373 3.724757 0.1178959 3.849757 0.117893 3.824179 0.7372996 3.849757 0.117893 3.9375 -0.5467531 3.94918 0.7373079 4 0.2630798 4.093547 -0.09638428 4.104006 0.7511346 4.1875 0.2630724 4.287257 0.1178917 4.261679 0.7372975 4.400243 -0.1178939 4.5 -0.5467513 4.541505 0.7511364 4.599757 0.1178969 4.6875 -0.5467515 4.699179 0.7373015 4.75 0.2630826 4.843547 -0.0963841 4.854005 0.7511368 0 0.1386804 0.0877431 -0.1178905 0.09511685 0.8370287 0.09511685 0.8370287 0.2127431 -0.117891 0.2201169 0.8370282 0.2201169 0.8370282 0.3377431 -0.1178919 0.3451169 0.8370286 0.3451169 0.8370286 0.4375 -0.263076 0.483927 0.2868605 0.5326169 0.8370288 0.6564532 0.09639233 0.6576169 0.8370283 0.7762635 0.797419 0.8377432 -0.1178916 0.9076169 0.8370285 1 0.5467503 1.087743 -0.117891 1.095117 0.8370287 1.095117 0.8370287 1.212743 -0.1178914 1.220117 0.8370285 1.220117 0.8370285 1.3125 -0.2630777 1.345117 0.8370283 1.399759 0.3627241 1.525243 -0.1178906 1.532617 0.8370289 1.532617 0.8370289 1.650243 -0.1178916 1.657617 0.8370288 1.657617 0.8370288 1.775243 -0.117892 1.782617 0.837029 1.875 0.5467496 1.962743 -0.1178911 1.970117 0.8370304 1.970117 0.8370304 2.0625 -0.2630767 2.095117 0.8370298 2.269893 0.4240196 2.400243 -0.1178923 2.407617 0.8370239 2.407617 0.8370239 2.5 -0.2630779 2.532617 0.8370241 3.099757 0.1178961 3.1875 -0.4668527 3.220117 0.837028 3.3125 0.5467508 3.400243 -0.1178935 3.407617 0.8370233 4.287257 0.1178917 4.400243 -0.1178939 4.407617 0.8370239 4.9375 0.2630824 5 -0.1386801 5 0.8372613 0.09511685 0.8370287 0.1570037 0.6536709 0.002342879 0.8261138 0.2201169 0.8370282 0.25 0.5691339 0.1570037 0.6536709 0.2201169 0.8370282 0.3445037 0.6536707 0.25 0.5691339 0.3451169 0.8370286 0.4375 0.65367 0.3445037 0.6536707 0.483927 0.2868605 0.5320901 0.57743 0.4375 0.65367 0.5326169 0.8370288 0.6570901 0.5774298 0.5320901 0.57743 0.6576169 0.8370283 0.7820039 0.6536706 0.6570901 0.5774298 0.7762635 0.797419 0.9070038 0.6536707 0.7820039 0.6536706 0.9076169 0.8370285 1 0.5691348 0.9070038 0.6536707 1 0.5467503 1.09459 0.5774294 1 0.5691348 1.095117 0.8370287 1.1875 0.5691347 1.09459 0.5774294 1.220117 0.8370285 1.282004 0.6536715 1.1875 0.5691347 1.345117 0.8370283 1.406026 0.6117053 1.282004 0.6536715 1.399759 0.3627241 1.53209 0.5774303 1.406026 0.6117053 1.532617 0.8370289 1.657004 0.6536712 1.53209 0.5774303 1.657617 0.8370288 1.782004 0.6536709 1.657004 0.6536712 1.782617 0.837029 1.906026 0.6117044 1.782004 0.6536709 1.970117 0.8370304 2.03209 0.5774282 1.906026 0.6117044 2.095117 0.8370298 2.15709 0.5774281 2.03209 0.5774282 2.199179 0.7373026 2.282004 0.6536732 2.15709 0.5774281 2.269893 0.4240196 2.407472 0.6130589 2.282004 0.6536732 2.407617 0.8370239 2.532004 0.6536737 2.407472 0.6130589 2.532617 0.8370241 2.657003 0.6536744 2.532004 0.6536737 2.63668 0.7372986 2.78209 0.5774338 2.657003 0.6536744 2.761679 0.7373006 2.907004 0.6536746 2.78209 0.5774338 2.916506 0.7511342 3.03209 0.5774332 2.907004 0.6536746 3.074179 0.7373012 3.157004 0.653674 3.03209 0.5774332 3.220117 0.837028 3.282003 0.6536754 3.157004 0.653674 3.3125 0.5467508 3.40709 0.5774335 3.282003 0.6536754 3.407617 0.8370233 3.532004 0.6536747 3.40709 0.5774335 3.57418 0.7372981 3.65709 0.5774344 3.532004 0.6536747 3.699179 0.7373 3.814013 0.6536754 3.65709 0.5774344 3.824179 0.7372996 3.9375 0.5691341 3.814013 0.6536754 3.94918 0.7373079 4.032004 0.6536749 3.9375 0.5691341 4.104006 0.7511346 4.157003 0.6536757 4.032004 0.6536749 4.104006 0.7511346 4.314012 0.6536756 4.157003 0.6536757 4.407617 0.8370239 4.469503 0.6536743 4.314012 0.6536756 4.541505 0.7511364 4.594503 0.653674 4.469503 0.6536743 4.541505 0.7511364 4.6875 0.5691376 4.594503 0.653674 4.699179 0.7373015 4.78209 0.5774343 4.6875 0.5691376 4.854005 0.7511368 4.907004 0.6536746 4.78209 0.5774343 4.854005 0.7511368 5 0.8372613 4.907004 0.6536746 0.1570037 0.6536709 0.25 0.5691339 0.1554099 -0.5774299 0.3445037 0.6536707 0.4375 -0.5691345 0.34291 -0.5774295 0.4375 0.65367 0.5320901 0.57743 0.4375 -0.5691345 0.7820039 0.6536706 0.9054101 -0.5774304 0.7804099 -0.5774302 0.9070038 0.6536707 1 0.5691348 0.9054101 -0.5774304 1.282004 0.6536715 1.34291 -0.5774301 1.217528 -0.6130551 1.657004 0.6536712 1.78041 -0.5774309 1.65541 -0.5774309 1.782004 0.6536709 1.875 -0.5691348 1.78041 -0.5774309 2.282004 0.6536732 2.407472 0.6130589 2.28041 -0.57743 2.532004 0.6536737 2.5625 -0.5691344 2.46791 -0.5774298 2.532004 0.6536737 2.65541 -0.57743 2.5625 -0.5691344 2.657003 0.6536744 2.78209 0.5774338 2.65541 -0.57743 2.907004 0.6536746 3.03209 0.5774332 2.90541 -0.5774279 3.157004 0.653674 3.21791 -0.5774268 3.125 -0.5691348 3.282003 0.6536754 3.3125 -0.5691332 3.21791 -0.5774268 3.282003 0.6536754 3.40709 0.5774335 3.3125 -0.5691332 3.532004 0.6536747 3.65709 0.5774344 3.53041 -0.5774264 3.814013 0.6536754 3.84291 -0.5774272 3.75 -0.5691316 3.814013 0.6536754 3.9375 0.5691341 3.84291 -0.5774272 4.032004 0.6536749 4.15541 -0.5774272 4.03041 -0.5774289 4.157003 0.6536757 4.28041 -0.5774261 4.15541 -0.5774272 4.314012 0.6536756 4.40541 -0.5774255 4.28041 -0.5774261 4.469503 0.6536743 4.5 -0.5691309 4.40541 -0.5774255 4.469503 0.6536743 4.59291 -0.5774264 4.5 -0.5691309 4.594503 0.653674 4.6875 0.5691376 4.59291 -0.5774264 4.907004 0.6536746 5 0.02114742 4.90541 -0.577426 0.002342879 0.8261138 0.1554099 -0.5774299 0.005869388 -0.08055543 0.25 0.5691339 0.34291 -0.5774295 0.25 -0.6536723 0.5320901 0.57743 0.6554962 -0.6536713 0.5304963 -0.6536709 0.6570901 0.5774298 0.7804099 -0.5774302 0.6554962 -0.6536713 1 0.5691348 1.092996 -0.6536719 1 -0.6536709 1.09459 0.5774294 1.217528 -0.6130551 1.092996 -0.6536719 1.406026 0.6117053 1.530496 -0.6536725 1.4375 -0.6536724 1.53209 0.5774303 1.65541 -0.5774309 1.530496 -0.6536725 2.03209 0.5774282 2.092996 -0.6536713 1.967996 -0.6536716 2.15709 0.5774281 2.1875 -0.6536719 2.092996 -0.6536713 2.15709 0.5774281 2.28041 -0.57743 2.1875 -0.6536719 2.407472 0.6130589 2.46791 -0.5774298 2.375 -0.6536712 2.78209 0.5774338 2.90541 -0.5774279 2.780496 -0.6536713 3.03209 0.5774332 3.125 -0.5691348 3.030496 -0.6536713 3.40709 0.5774335 3.53041 -0.5774264 3.405497 -0.6536717 3.65709 0.5774344 3.75 -0.5691316 3.655496 -0.653671 3.9375 0.5691341 4.03041 -0.5774289 3.9375 -0.6536711 4.78209 0.5774343 4.8125 -0.6536691 4.717996 -0.6536693 4.78209 0.5774343 4.90541 -0.577426 4.8125 -0.6536691 0.1554099 -0.5774299 0.2383204 -0.7373017 0.1133204 -0.7373021 0.25 -0.6536723 0.3633204 -0.7373008 0.2383204 -0.7373017 0.34291 -0.5774295 0.4883204 -0.7373028 0.3633204 -0.7373008 0.5304963 -0.6536709 0.6133204 -0.7373014 0.4883204 -0.7373028 0.6554962 -0.6536713 0.7272175 -0.5078106 0.6133204 -0.7373014 0.7804099 -0.5774302 0.8633205 -0.7373014 0.7272175 -0.5078106 0.9054101 -0.5774304 0.9883204 -0.737302 0.8633205 -0.7373014 1 -0.6536709 1.11332 -0.7373014 0.9883204 -0.737302 1.092996 -0.6536719 1.23832 -0.7373012 1.11332 -0.7373014 1.217528 -0.6130551 1.36332 -0.7373012 1.23832 -0.7373012 1.34291 -0.5774301 1.4375 -0.5467498 1.36332 -0.7373012 1.4375 -0.6536724 1.550821 -0.737299 1.4375 -0.5467498 1.530496 -0.6536725 1.67582 -0.7373012 1.550821 -0.737299 1.65541 -0.5774309 1.833494 -0.7511367 1.67582 -0.7373012 1.875 -0.5691348 1.98832 -0.7373009 1.833494 -0.7511367 1.967996 -0.6536716 2.113321 -0.7373012 1.98832 -0.7373009 2.092996 -0.6536713 2.217383 -0.8370283 2.113321 -0.7373012 2.28041 -0.57743 2.3125 -0.5467509 2.217383 -0.8370283 2.28041 -0.57743 2.42582 -0.7373008 2.3125 -0.5467509 2.46791 -0.5774298 2.550821 -0.7373012 2.42582 -0.7373008 2.5625 -0.5691344 2.654883 -0.837027 2.550821 -0.7373012 2.65541 -0.57743 2.75 -0.5467526 2.654883 -0.837027 2.780496 -0.6536713 2.842383 -0.8370285 2.75 -0.5467526 2.90541 -0.5774279 2.967383 -0.8370288 2.842383 -0.8370285 3.030496 -0.6536713 3.092383 -0.837029 2.967383 -0.8370288 3.125 -0.5691348 3.1875 -0.4668527 3.092383 -0.837029 3.21791 -0.5774268 3.30082 -0.7373059 3.1875 -0.4668527 3.3125 -0.5691332 3.458494 -0.7511416 3.30082 -0.7373059 3.53041 -0.5774264 3.592383 -0.837029 3.458494 -0.7511416 3.655496 -0.653671 3.717383 -0.8370286 3.592383 -0.837029 3.75 -0.5691316 3.842383 -0.8370289 3.717383 -0.8370286 3.84291 -0.5774272 3.9375 -0.5467531 3.842383 -0.8370289 3.9375 -0.6536711 4.029883 -0.8370289 3.9375 -0.5467531 4.03041 -0.5774289 4.154883 -0.8370287 4.029883 -0.8370289 4.15541 -0.5774272 4.279883 -0.8370289 4.154883 -0.8370287 4.28041 -0.5774261 4.42582 -0.7373074 4.279883 -0.8370289 4.40541 -0.5774255 4.5 -0.5467513 4.42582 -0.7373074 4.5 -0.5691309 4.592383 -0.837029 4.5 -0.5467513 4.59291 -0.5774264 4.6875 -0.5467515 4.592383 -0.837029 4.717996 -0.6536693 4.779883 -0.8370282 4.6875 -0.5467515 4.8125 -0.6536691 4.904883 -0.8370285 4.779883 -0.8370282 4.90541 -0.577426 5 -0.8361245 4.904883 -0.8370285 0 -0.8372682 0.1133204 -0.7373021 0.0877431 -0.1178905 0.1133204 -0.7373021 0.2383204 -0.7373017 0.2127431 -0.117891 0.2383204 -0.7373017 0.3633204 -0.7373008 0.3377431 -0.1178919 0.3633204 -0.7373008 0.4883204 -0.7373028 0.4375 -0.263076 0.4883204 -0.7373028 0.6133204 -0.7373014 0.5625 -0.2630757 0.7272175 -0.5078106 0.8633205 -0.7373014 0.8377432 -0.1178916 0.8633205 -0.7373014 0.9883204 -0.737302 0.9375 -0.2630771 0.9883204 -0.737302 1.11332 -0.7373014 1.087743 -0.117891 1.11332 -0.7373014 1.23832 -0.7373012 1.212743 -0.1178914 1.23832 -0.7373012 1.36332 -0.7373012 1.3125 -0.2630777 1.4375 -0.5467498 1.550821 -0.737299 1.525243 -0.1178906 1.550821 -0.737299 1.67582 -0.7373012 1.650243 -0.1178916 1.67582 -0.7373012 1.833494 -0.7511367 1.775243 -0.117892 1.833494 -0.7511367 1.98832 -0.7373009 1.962743 -0.1178911 1.98832 -0.7373009 2.113321 -0.7373012 2.0625 -0.2630767 2.3125 -0.5467509 2.42582 -0.7373008 2.400243 -0.1178923 2.42582 -0.7373008 2.550821 -0.7373012 2.5 -0.2630779 3.1875 -0.4668527 3.30082 -0.7373059 3.25 -0.2630804 3.30082 -0.7373059 3.458494 -0.7511416 3.400243 -0.1178935 4.279883 -0.8370289 4.42582 -0.7373074 4.400243 -0.1178939 4.904883 -0.8370285 5 -0.8361245 5 -0.1386801 2.113321 -0.7373012 2.217383 -0.8370283 2.15625 1.43051e-6 2.15625 1.43051e-6 2.217383 -0.8370283 2.269893 0.4240196 2.550821 -0.7373012 2.654883 -0.837027 2.59375 2.35438e-6 2.59375 2.35438e-6 2.654883 -0.837027 2.6875 0.2630813 2.75 -0.5467526 2.842383 -0.8370285 2.8125 0.2630821 2.8125 0.2630821 2.842383 -0.8370285 2.906047 -0.09638506 2.906047 -0.09638506 2.967383 -0.8370288 3 0.2630801 3 0.2630801 3.092383 -0.837029 3.099757 0.1178961 3.458494 -0.7511416 3.592383 -0.837029 3.599757 0.1178961 3.599757 0.1178961 3.717383 -0.8370286 3.724757 0.1178959 3.724757 0.1178959 3.842383 -0.8370289 3.849757 0.117893 3.9375 -0.5467531 4.029883 -0.8370289 4 0.2630798 4 0.2630798 4.029883 -0.8370289 4.093547 -0.09638428 4.093547 -0.09638428 4.154883 -0.8370287 4.1875 0.2630724 4.1875 0.2630724 4.279883 -0.8370289 4.287257 0.1178917 4.5 -0.5467513 4.592383 -0.837029 4.599757 0.1178969 4.6875 -0.5467515 4.779883 -0.8370282 4.75 0.2630826 4.75 0.2630826 4.779883 -0.8370282 4.843547 -0.0963841 4.843547 -0.0963841 4.904883 -0.8370285 4.9375 0.2630824 0.4375 -0.263076 0.4883204 -0.7373028 0.483927 0.2868605 0.5625 -0.2630757 0.6133204 -0.7373014 0.6564532 0.09639233 0.9375 -0.2630771 0.9883204 -0.737302 1 0.5467503 1.3125 -0.2630777 1.36332 -0.7373012 1.399759 0.3627241 1.775243 -0.117892 1.833494 -0.7511367 1.875 0.5467496 2.0625 -0.2630767 2.113321 -0.7373012 2.15625 1.43051e-6 2.5 -0.2630779 2.550821 -0.7373012 2.59375 2.35438e-6 3.25 -0.2630804 3.30082 -0.7373059 3.3125 0.5467508 3.400243 -0.1178935 3.458494 -0.7511416 3.5 0.5467476 0.7762635 0.797419 0.7272175 -0.5078106 0.8377432 -0.1178916 1.399759 0.3627241 1.4375 -0.5467498 1.525243 -0.1178906 2.199179 0.7373026 2.15625 1.43051e-6 2.269893 0.4240196 2.269893 0.4240196 2.3125 -0.5467509 2.400243 -0.1178923 2.63668 0.7372986 2.59375 2.35438e-6 2.6875 0.2630813 2.761679 0.7373006 2.75 -0.5467526 2.8125 0.2630821 2.916506 0.7511342 2.906047 -0.09638506 3 0.2630801 3.94918 0.7373079 3.9375 -0.5467531 4 0.2630798 4.104006 0.7511346 4.093547 -0.09638428 4.1875 0.2630724 4.541505 0.7511364 4.5 -0.5467513 4.599757 0.1178969 4.699179 0.7373015 4.6875 -0.5467515 4.75 0.2630826 4.854005 0.7511368 4.843547 -0.0963841 4.9375 0.2630824 0.09511685 0.8370287 0.0877431 -0.1178905 0.2127431 -0.117891 0.2201169 0.8370282 0.2127431 -0.117891 0.3377431 -0.1178919 0.3451169 0.8370286 0.3377431 -0.1178919 0.4375 -0.263076 0.5326169 0.8370288 0.483927 0.2868605 0.5625 -0.2630757 0.5326169 0.8370288 0.5625 -0.2630757 0.6564532 0.09639233 0.6576169 0.8370283 0.6564532 0.09639233 0.7762635 0.797419 0.9076169 0.8370285 0.8377432 -0.1178916 0.9375 -0.2630771 0.9076169 0.8370285 0.9375 -0.2630771 1 0.5467503 1.095117 0.8370287 1.087743 -0.117891 1.212743 -0.1178914 1.220117 0.8370285 1.212743 -0.1178914 1.3125 -0.2630777 1.345117 0.8370283 1.3125 -0.2630777 1.399759 0.3627241 1.532617 0.8370289 1.525243 -0.1178906 1.650243 -0.1178916 1.657617 0.8370288 1.650243 -0.1178916 1.775243 -0.117892 1.782617 0.837029 1.775243 -0.117892 1.875 0.5467496 1.970117 0.8370304 1.962743 -0.1178911 2.0625 -0.2630767 2.095117 0.8370298 2.0625 -0.2630767 2.15625 1.43051e-6 2.095117 0.8370298 2.15625 1.43051e-6 2.199179 0.7373026 2.407617 0.8370239 2.400243 -0.1178923 2.5 -0.2630779 2.532617 0.8370241 2.5 -0.2630779 2.59375 2.35438e-6 2.532617 0.8370241 2.59375 2.35438e-6 2.63668 0.7372986 3.220117 0.837028 3.1875 -0.4668527 3.25 -0.2630804 3.220117 0.837028 3.25 -0.2630804 3.3125 0.5467508 3.407617 0.8370233 3.400243 -0.1178935 3.5 0.5467476 4.407617 0.8370239 4.400243 -0.1178939 4.541505 0.7511364 0.002342879 0.8261138 0 0.1386804 0.09511685 0.8370287 2.63668 0.7372986 2.6875 0.2630813 2.761679 0.7373006 2.761679 0.7373006 2.8125 0.2630821 2.916506 0.7511342 2.916506 0.7511342 3 0.2630801 3.074179 0.7373012 3.074179 0.7373012 3.099757 0.1178961 3.220117 0.837028 3.57418 0.7372981 3.599757 0.1178961 3.699179 0.7373 3.699179 0.7373 3.724757 0.1178959 3.824179 0.7372996 3.824179 0.7372996 3.849757 0.117893 3.94918 0.7373079 3.94918 0.7373079 4 0.2630798 4.104006 0.7511346 4.104006 0.7511346 4.1875 0.2630724 4.261679 0.7372975 4.261679 0.7372975 4.287257 0.1178917 4.407617 0.8370239 4.541505 0.7511364 4.599757 0.1178969 4.699179 0.7373015 4.699179 0.7373015 4.75 0.2630826 4.854005 0.7511368 4.854005 0.7511368 4.9375 0.2630824 5 0.8372613 0.09511685 0.8370287 0.2201169 0.8370282 0.1570037 0.6536709 0.2201169 0.8370282 0.3451169 0.8370286 0.3445037 0.6536707 0.3451169 0.8370286 0.483927 0.2868605 0.4375 0.65367 0.483927 0.2868605 0.5326169 0.8370288 0.5320901 0.57743 0.5326169 0.8370288 0.6576169 0.8370283 0.6570901 0.5774298 0.6576169 0.8370283 0.7762635 0.797419 0.7820039 0.6536706 0.7762635 0.797419 0.9076169 0.8370285 0.9070038 0.6536707 0.9076169 0.8370285 1 0.5467503 1 0.5691348 1 0.5467503 1.095117 0.8370287 1.09459 0.5774294 1.095117 0.8370287 1.220117 0.8370285 1.1875 0.5691347 1.220117 0.8370285 1.345117 0.8370283 1.282004 0.6536715 1.345117 0.8370283 1.399759 0.3627241 1.406026 0.6117053 1.399759 0.3627241 1.532617 0.8370289 1.53209 0.5774303 1.532617 0.8370289 1.657617 0.8370288 1.657004 0.6536712 1.657617 0.8370288 1.782617 0.837029 1.782004 0.6536709 1.782617 0.837029 1.875 0.5467496 1.906026 0.6117044 1.875 0.5467496 1.970117 0.8370304 1.906026 0.6117044 1.970117 0.8370304 2.095117 0.8370298 2.03209 0.5774282 2.095117 0.8370298 2.199179 0.7373026 2.15709 0.5774281 2.199179 0.7373026 2.269893 0.4240196 2.282004 0.6536732 2.269893 0.4240196 2.407617 0.8370239 2.407472 0.6130589 2.407617 0.8370239 2.532617 0.8370241 2.532004 0.6536737 2.532617 0.8370241 2.63668 0.7372986 2.657003 0.6536744 2.63668 0.7372986 2.761679 0.7373006 2.78209 0.5774338 2.761679 0.7373006 2.916506 0.7511342 2.907004 0.6536746 2.916506 0.7511342 3.074179 0.7373012 3.03209 0.5774332 3.074179 0.7373012 3.220117 0.837028 3.157004 0.653674 3.220117 0.837028 3.3125 0.5467508 3.282003 0.6536754 3.3125 0.5467508 3.407617 0.8370233 3.40709 0.5774335 3.407617 0.8370233 3.5 0.5467476 3.532004 0.6536747 3.5 0.5467476 3.57418 0.7372981 3.532004 0.6536747 3.57418 0.7372981 3.699179 0.7373 3.65709 0.5774344 3.699179 0.7373 3.824179 0.7372996 3.814013 0.6536754 3.824179 0.7372996 3.94918 0.7373079 3.9375 0.5691341 3.94918 0.7373079 4.104006 0.7511346 4.032004 0.6536749 4.104006 0.7511346 4.261679 0.7372975 4.314012 0.6536756 4.261679 0.7372975 4.407617 0.8370239 4.314012 0.6536756 4.407617 0.8370239 4.541505 0.7511364 4.469503 0.6536743 4.541505 0.7511364 4.699179 0.7373015 4.6875 0.5691376 4.699179 0.7373015 4.854005 0.7511368 4.78209 0.5774343 4.907004 0.6536746 5 0.8372613 5 0.02114742 0.002342879 0.8261138 0.1570037 0.6536709 0.1554099 -0.5774299 0.25 0.5691339 0.3445037 0.6536707 0.34291 -0.5774295 0.3445037 0.6536707 0.4375 0.65367 0.4375 -0.5691345 0.6570901 0.5774298 0.7820039 0.6536706 0.7804099 -0.5774302 0.7820039 0.6536706 0.9070038 0.6536707 0.9054101 -0.5774304 1.1875 0.5691347 1.282004 0.6536715 1.217528 -0.6130551 1.282004 0.6536715 1.406026 0.6117053 1.34291 -0.5774301 1.53209 0.5774303 1.657004 0.6536712 1.65541 -0.5774309 1.657004 0.6536712 1.782004 0.6536709 1.78041 -0.5774309 1.782004 0.6536709 1.906026 0.6117044 1.875 -0.5691348 2.15709 0.5774281 2.282004 0.6536732 2.28041 -0.57743 2.407472 0.6130589 2.532004 0.6536737 2.46791 -0.5774298 2.532004 0.6536737 2.657003 0.6536744 2.65541 -0.57743 2.78209 0.5774338 2.907004 0.6536746 2.90541 -0.5774279 3.03209 0.5774332 3.157004 0.653674 3.125 -0.5691348 3.157004 0.653674 3.282003 0.6536754 3.21791 -0.5774268 3.40709 0.5774335 3.532004 0.6536747 3.53041 -0.5774264 3.65709 0.5774344 3.814013 0.6536754 3.75 -0.5691316 3.9375 0.5691341 4.032004 0.6536749 4.03041 -0.5774289 4.032004 0.6536749 4.157003 0.6536757 4.15541 -0.5774272 4.157003 0.6536757 4.314012 0.6536756 4.28041 -0.5774261 4.314012 0.6536756 4.469503 0.6536743 4.40541 -0.5774255 4.469503 0.6536743 4.594503 0.653674 4.59291 -0.5774264 4.78209 0.5774343 4.907004 0.6536746 4.90541 -0.577426 0.1554099 -0.5774299 0.25 0.5691339 0.25 -0.6536723 0.4375 -0.5691345 0.5320901 0.57743 0.5304963 -0.6536709 0.5320901 0.57743 0.6570901 0.5774298 0.6554962 -0.6536713 0.9054101 -0.5774304 1 0.5691348 1 -0.6536709 1 0.5691348 1.09459 0.5774294 1.092996 -0.6536719 1.09459 0.5774294 1.1875 0.5691347 1.217528 -0.6130551 1.34291 -0.5774301 1.406026 0.6117053 1.4375 -0.6536724 1.406026 0.6117053 1.53209 0.5774303 1.530496 -0.6536725 1.875 -0.5691348 1.906026 0.6117044 1.967996 -0.6536716 1.906026 0.6117044 2.03209 0.5774282 1.967996 -0.6536716 2.03209 0.5774282 2.15709 0.5774281 2.092996 -0.6536713 2.28041 -0.57743 2.407472 0.6130589 2.375 -0.6536712 2.65541 -0.57743 2.78209 0.5774338 2.780496 -0.6536713 2.90541 -0.5774279 3.03209 0.5774332 3.030496 -0.6536713 3.3125 -0.5691332 3.40709 0.5774335 3.405497 -0.6536717 3.53041 -0.5774264 3.65709 0.5774344 3.655496 -0.653671 3.84291 -0.5774272 3.9375 0.5691341 3.9375 -0.6536711 4.59291 -0.5774264 4.6875 0.5691376 4.717996 -0.6536693 4.6875 0.5691376 4.78209 0.5774343 4.717996 -0.6536693 4.90541 -0.577426 5 0.02114742 5 -0.8361245 0 -0.8372682 0.005869388 -0.08055543 0.1133204 -0.7373021 0.005869388 -0.08055543 0.1554099 -0.5774299 0.1133204 -0.7373021 0.1554099 -0.5774299 0.25 -0.6536723 0.2383204 -0.7373017 0.25 -0.6536723 0.34291 -0.5774295 0.3633204 -0.7373008 0.34291 -0.5774295 0.4375 -0.5691345 0.4883204 -0.7373028 0.4375 -0.5691345 0.5304963 -0.6536709 0.4883204 -0.7373028 0.5304963 -0.6536709 0.6554962 -0.6536713 0.6133204 -0.7373014 0.6554962 -0.6536713 0.7804099 -0.5774302 0.7272175 -0.5078106 0.7804099 -0.5774302 0.9054101 -0.5774304 0.8633205 -0.7373014 0.9054101 -0.5774304 1 -0.6536709 0.9883204 -0.737302 1 -0.6536709 1.092996 -0.6536719 1.11332 -0.7373014 1.092996 -0.6536719 1.217528 -0.6130551 1.23832 -0.7373012 1.217528 -0.6130551 1.34291 -0.5774301 1.36332 -0.7373012 1.34291 -0.5774301 1.4375 -0.6536724 1.4375 -0.5467498 1.4375 -0.6536724 1.530496 -0.6536725 1.550821 -0.737299 1.530496 -0.6536725 1.65541 -0.5774309 1.67582 -0.7373012 1.65541 -0.5774309 1.78041 -0.5774309 1.833494 -0.7511367 1.78041 -0.5774309 1.875 -0.5691348 1.833494 -0.7511367 1.875 -0.5691348 1.967996 -0.6536716 1.98832 -0.7373009 1.967996 -0.6536716 2.092996 -0.6536713 2.113321 -0.7373012 2.092996 -0.6536713 2.1875 -0.6536719 2.217383 -0.8370283 2.1875 -0.6536719 2.28041 -0.57743 2.217383 -0.8370283 2.28041 -0.57743 2.375 -0.6536712 2.42582 -0.7373008 2.375 -0.6536712 2.46791 -0.5774298 2.42582 -0.7373008 2.46791 -0.5774298 2.5625 -0.5691344 2.550821 -0.7373012 2.5625 -0.5691344 2.65541 -0.57743 2.654883 -0.837027 2.65541 -0.57743 2.780496 -0.6536713 2.75 -0.5467526 2.780496 -0.6536713 2.90541 -0.5774279 2.842383 -0.8370285 2.90541 -0.5774279 3.030496 -0.6536713 2.967383 -0.8370288 3.030496 -0.6536713 3.125 -0.5691348 3.092383 -0.837029 3.125 -0.5691348 3.21791 -0.5774268 3.1875 -0.4668527 3.21791 -0.5774268 3.3125 -0.5691332 3.30082 -0.7373059 3.3125 -0.5691332 3.405497 -0.6536717 3.458494 -0.7511416 3.405497 -0.6536717 3.53041 -0.5774264 3.458494 -0.7511416 3.53041 -0.5774264 3.655496 -0.653671 3.592383 -0.837029 3.655496 -0.653671 3.75 -0.5691316 3.717383 -0.8370286 3.75 -0.5691316 3.84291 -0.5774272 3.842383 -0.8370289 3.84291 -0.5774272 3.9375 -0.6536711 3.9375 -0.5467531 3.9375 -0.6536711 4.03041 -0.5774289 4.029883 -0.8370289 4.03041 -0.5774289 4.15541 -0.5774272 4.154883 -0.8370287 4.15541 -0.5774272 4.28041 -0.5774261 4.279883 -0.8370289 4.28041 -0.5774261 4.40541 -0.5774255 4.42582 -0.7373074 4.40541 -0.5774255 4.5 -0.5691309 4.5 -0.5467513 4.5 -0.5691309 4.59291 -0.5774264 4.592383 -0.837029 4.59291 -0.5774264 4.717996 -0.6536693 4.6875 -0.5467515 4.717996 -0.6536693 4.8125 -0.6536691 4.779883 -0.8370282 4.8125 -0.6536691 4.90541 -0.577426 4.904883 -0.8370285 0 0.1386804 0 -0.8372682 0.0877431 -0.1178905 2.269893 0.4240196 2.217383 -0.8370283 2.3125 -0.5467509 2.6875 0.2630813 2.654883 -0.837027 2.75 -0.5467526 2.906047 -0.09638506 2.842383 -0.8370285 2.967383 -0.8370288 3 0.2630801 2.967383 -0.8370288 3.092383 -0.837029 3.099757 0.1178961 3.092383 -0.837029 3.1875 -0.4668527 3.599757 0.1178961 3.592383 -0.837029 3.717383 -0.8370286 3.724757 0.1178959 3.717383 -0.8370286 3.842383 -0.8370289 3.849757 0.117893 3.842383 -0.8370289 3.9375 -0.5467531 4.093547 -0.09638428 4.029883 -0.8370289 4.154883 -0.8370287 4.1875 0.2630724 4.154883 -0.8370287 4.279883 -0.8370289 4.287257 0.1178917 4.279883 -0.8370289 4.400243 -0.1178939 4.599757 0.1178969 4.592383 -0.837029 4.6875 -0.5467515 4.843547 -0.0963841 4.779883 -0.8370282 4.904883 -0.8370285 4.9375 0.2630824 4.904883 -0.8370285 5 -0.1386801 0.0877431 -0.1178905 0.1133204 -0.7373021 0.2127431 -0.117891 0.2127431 -0.117891 0.2383204 -0.7373017 0.3377431 -0.1178919 0.3377431 -0.1178919 0.3633204 -0.7373008 0.4375 -0.263076 0.483927 0.2868605 0.4883204 -0.7373028 0.5625 -0.2630757 0.6564532 0.09639233 0.6133204 -0.7373014 0.7272175 -0.5078106 0.8377432 -0.1178916 0.8633205 -0.7373014 0.9375 -0.2630771 1 0.5467503 0.9883204 -0.737302 1.087743 -0.117891 1.087743 -0.117891 1.11332 -0.7373014 1.212743 -0.1178914 1.212743 -0.1178914 1.23832 -0.7373012 1.3125 -0.2630777 1.399759 0.3627241 1.36332 -0.7373012 1.4375 -0.5467498 1.525243 -0.1178906 1.550821 -0.737299 1.650243 -0.1178916 1.650243 -0.1178916 1.67582 -0.7373012 1.775243 -0.117892 1.875 0.5467496 1.833494 -0.7511367 1.962743 -0.1178911 1.962743 -0.1178911 1.98832 -0.7373009 2.0625 -0.2630767 2.400243 -0.1178923 2.42582 -0.7373008 2.5 -0.2630779 3.3125 0.5467508 3.30082 -0.7373059 3.400243 -0.1178935 3.5 0.5467476 3.458494 -0.7511416 3.599757 0.1178961 4.400243 -0.1178939 4.42582 -0.7373074 4.5 -0.5467513</float_array>
          <technique_common>
            <accessor source="#Circle_001-mesh-map-0-array" count="1278" stride="2">
              <param name="S" type="float"/>
              <param name="T" type="float"/>
            </accessor>
          </technique_common>
        </source>
        <vertices id="Circle_001-mesh-vertices">
          <input semantic="POSITION" source="#Circle_001-mesh-positions"/>
        </vertices>
        <triangles material="Material_002-material" count="426">
          <input semantic="VERTEX" source="#Circle_001-mesh-vertices" offset="0"/>
          <input semantic="NORMAL" source="#Circle_001-mesh-normals" offset="1"/>
          <input semantic="TEXCOORD" source="#Circle_001-mesh-map-0" offset="2" set="0"/>
          <p>29 0 0 33 1 1 34 2 2 118 3 3 122 4 4 119 5 5 123 6 6 125 7 7 126 8 8 130 9 9 133 10 10 134 11 11 151 12 12 154 13 13 155 14 14 154 13 15 159 15 16 160 16 17 159 15 18 164 17 19 165 18 20 164 17 21 171 19 22 168 20 23 172 21 24 176 22 25 177 23 26 181 24 27 182 25 28 183 26 29 190 27 30 194 28 31 192 29 32 195 30 33 202 31 34 199 32 35 203 33 36 206 34 37 207 35 38 0 36 39 6 37 40 4 38 41 4 38 42 11 39 43 9 40 44 9 40 45 18 41 46 14 42 47 14 42 48 23 43 49 19 44 50 24 45 51 29 0 52 30 46 53 34 2 54 38 47 55 39 48 56 44 49 57 51 50 58 47 51 59 47 51 60 56 52 61 52 53 62 52 53 63 61 54 64 58 55 65 62 56 66 70 57 67 66 58 68 66 58 69 75 59 70 71 60 71 71 60 72 80 61 73 76 62 74 81 63 75 87 64 76 84 65 77 84 65 78 92 66 79 89 67 80 98 68 81 106 69 82 102 70 83 102 70 84 111 71 85 108 72 86 133 10 87 140 73 88 138 74 89 144 75 90 150 76 91 146 77 92 182 25 93 190 27 94 187 78 95 212 79 96 216 80 97 213 81 98 4 38 99 7 82 100 1 83 101 9 40 102 12 84 103 7 82 104 9 40 105 15 85 106 12 84 107 14 42 108 20 86 109 15 85 110 19 44 111 25 87 112 20 86 113 24 45 114 31 88 115 25 87 116 30 46 117 35 89 118 31 88 119 34 2 120 40 90 121 35 89 122 39 48 123 45 91 124 40 90 125 44 49 126 48 92 127 45 91 128 47 51 129 53 93 130 48 92 131 52 53 132 57 94 133 53 93 134 58 55 135 63 95 136 57 94 137 62 56 138 67 96 139 63 95 140 66 58 141 72 97 142 67 96 143 71 60 144 77 98 145 72 97 146 76 62 147 82 99 148 77 98 149 84 65 150 88 100 151 82 99 152 89 67 153 94 101 154 88 100 155 95 102 156 99 103 157 94 101 158 98 68 159 103 104 160 99 103 161 102 70 162 109 105 163 103 104 164 108 72 165 115 106 166 109 105 167 114 107 168 120 108 169 115 106 170 119 5 171 127 109 172 120 108 173 126 8 174 131 110 175 127 109 176 134 11 177 136 111 178 131 110 179 138 74 180 141 112 181 136 111 182 144 75 183 147 113 184 141 112 185 146 77 186 152 114 187 147 113 188 155 14 189 157 115 190 152 114 191 160 16 192 162 116 193 157 115 194 165 18 195 169 117 196 162 116 197 168 20 198 173 118 199 169 117 200 177 23 201 178 119 202 173 118 203 177 23 204 184 120 205 178 119 206 187 78 207 191 121 208 184 120 209 192 29 210 196 122 211 191 121 212 192 29 213 200 123 214 196 122 215 199 32 216 204 124 217 200 123 218 207 35 219 209 125 220 204 124 221 207 35 222 213 81 223 209 125 224 7 82 225 12 84 226 8 126 227 15 85 228 21 127 229 16 128 230 20 86 231 25 87 232 21 127 233 35 89 234 41 129 235 36 130 236 40 90 237 45 91 238 41 129 239 57 94 240 59 131 241 54 132 242 72 97 243 78 133 244 73 134 245 77 98 246 83 135 247 78 133 248 99 103 249 103 104 250 100 136 251 109 105 252 113 137 253 107 138 254 109 105 255 116 139 256 113 137 257 115 106 258 120 108 259 116 139 260 127 109 261 131 110 262 128 140 263 136 111 264 139 141 265 137 142 266 141 112 267 145 143 268 139 141 269 141 112 270 147 113 271 145 143 272 152 114 273 157 115 274 153 144 275 162 116 276 166 145 277 163 146 278 162 116 279 169 117 280 166 145 281 173 118 282 179 147 283 174 148 284 178 119 285 185 149 286 179 147 287 184 120 288 188 150 289 185 149 290 191 121 291 193 151 292 188 150 293 191 121 294 197 152 295 193 151 296 196 122 297 200 123 298 197 152 299 209 125 300 214 153 301 210 154 302 1 83 303 8 126 304 2 155 305 12 84 306 16 128 307 13 156 308 25 87 309 32 157 310 26 158 311 31 88 312 36 130 313 32 157 314 45 91 315 49 159 316 46 160 317 48 92 318 54 132 319 49 159 320 63 95 321 68 161 322 64 162 323 67 96 324 73 134 325 68 161 326 88 100 327 90 163 328 85 164 329 94 101 330 96 165 331 90 163 332 94 101 333 100 136 334 96 165 335 103 104 336 107 138 337 104 166 338 120 108 339 128 140 340 121 167 341 131 110 342 137 142 343 132 168 344 147 113 345 153 144 346 148 169 347 157 115 348 163 146 349 158 170 350 169 117 351 174 148 352 170 171 353 204 124 354 208 172 355 201 173 356 204 124 357 210 154 358 208 172 359 8 126 360 10 174 361 5 175 362 13 156 363 17 176 364 10 174 365 16 128 366 22 177 367 17 176 368 26 158 369 27 178 370 22 177 371 32 157 372 33 1 373 27 178 374 36 130 375 37 179 376 33 1 377 41 129 378 42 180 379 37 179 380 46 160 381 50 181 382 42 180 383 49 159 384 55 182 385 50 181 386 54 132 387 60 183 388 55 182 389 59 131 390 65 184 391 60 183 392 64 162 393 69 185 394 65 184 395 68 161 396 74 186 397 69 185 398 73 134 399 79 187 400 74 186 401 83 135 402 86 188 403 79 187 404 85 164 405 91 189 406 86 188 407 90 163 408 97 190 409 91 189 410 100 136 411 101 191 412 97 190 413 100 136 414 105 192 415 101 191 416 107 138 417 110 193 418 105 192 419 113 137 420 117 194 421 110 193 422 116 139 423 122 4 424 117 194 425 121 167 426 124 195 427 122 4 428 128 140 429 129 196 430 124 195 431 132 168 432 135 197 433 129 196 434 137 142 435 140 73 436 135 197 437 139 141 438 142 198 439 140 73 440 145 143 441 149 199 442 142 198 443 153 144 444 156 200 445 149 199 446 158 170 447 161 201 448 156 200 449 163 146 450 167 202 451 161 201 452 166 145 453 171 19 454 167 202 455 170 171 456 175 203 457 171 19 458 174 148 459 180 204 460 175 203 461 179 147 462 186 205 463 180 204 464 185 149 465 189 206 466 186 205 467 188 150 468 194 28 469 189 206 470 193 151 471 198 207 472 194 28 473 197 152 474 202 31 475 198 207 476 201 173 477 205 208 478 202 31 479 208 172 480 211 209 481 205 208 482 210 154 483 215 210 484 211 209 485 3 211 486 5 175 487 6 37 488 5 175 489 10 174 490 11 39 491 10 174 492 17 176 493 18 41 494 17 176 495 22 177 496 23 43 497 22 177 498 27 178 499 28 212 500 33 1 501 37 179 502 38 47 503 37 179 504 42 180 505 43 213 506 42 180 507 50 181 508 51 50 509 50 181 510 55 182 511 56 52 512 55 182 513 60 183 514 61 54 515 65 184 516 69 185 517 70 57 518 69 185 519 74 186 520 75 59 521 74 186 522 79 187 523 80 61 524 79 187 525 86 188 526 87 64 527 86 188 528 91 189 529 92 66 530 101 191 531 105 192 532 106 69 533 105 192 534 110 193 535 111 71 536 140 73 537 142 198 538 143 214 539 142 198 540 149 199 541 150 76 542 186 205 543 189 206 544 190 27 545 211 209 546 215 210 547 216 80 548 91 189 549 97 190 550 93 215 551 93 215 552 97 190 553 98 68 554 110 193 555 117 194 556 112 216 557 112 216 558 117 194 559 118 3 560 122 4 561 124 195 562 123 6 563 123 6 564 124 195 565 125 7 566 125 7 567 129 196 568 130 9 569 130 9 570 135 197 571 133 10 572 149 199 573 156 200 574 154 13 575 154 13 576 161 201 577 159 15 578 159 15 579 167 202 580 164 17 581 171 19 582 175 203 583 172 21 584 172 21 585 175 203 586 176 22 587 176 22 588 180 204 589 181 24 590 181 24 591 186 205 592 182 25 593 194 28 594 198 207 595 195 30 596 202 31 597 205 208 598 203 33 599 203 33 600 205 208 601 206 34 602 206 34 603 211 209 604 212 79 605 23 43 606 22 177 607 19 44 608 28 212 609 27 178 610 29 0 611 43 213 612 42 180 613 44 49 614 61 54 615 60 183 616 62 56 617 80 61 618 79 187 619 81 63 620 92 66 621 91 189 622 93 215 623 111 71 624 110 193 625 112 216 626 143 214 627 142 198 628 144 75 629 150 76 630 149 199 631 151 12 632 34 2 633 33 1 634 38 47 635 62 56 636 65 184 637 70 57 638 95 102 639 93 215 640 98 68 641 98 68 642 101 191 643 106 69 644 114 107 645 112 216 646 118 3 647 119 5 648 122 4 649 123 6 650 126 8 651 125 7 652 130 9 653 168 20 654 171 19 655 172 21 656 177 23 657 176 22 658 181 24 659 192 29 660 194 28 661 195 30 662 199 32 663 202 31 664 203 33 665 207 35 666 206 34 667 212 79 668 4 38 669 6 37 670 11 39 671 9 40 672 11 39 673 18 41 674 14 42 675 18 41 676 23 43 677 24 45 678 19 44 679 28 212 680 24 45 681 28 212 682 29 0 683 30 46 684 29 0 685 34 2 686 39 48 687 38 47 688 43 213 689 39 48 690 43 213 691 44 49 692 47 51 693 51 50 694 56 52 695 52 53 696 56 52 697 61 54 698 58 55 699 61 54 700 62 56 701 66 58 702 70 57 703 75 59 704 71 60 705 75 59 706 80 61 707 76 62 708 80 61 709 81 63 710 84 65 711 87 64 712 92 66 713 89 67 714 92 66 715 93 215 716 89 67 717 93 215 718 95 102 719 102 70 720 106 69 721 111 71 722 108 72 723 111 71 724 112 216 725 108 72 726 112 216 727 114 107 728 138 74 729 140 73 730 143 214 731 138 74 732 143 214 733 144 75 734 146 77 735 150 76 736 151 12 737 187 78 738 190 27 739 192 29 740 1 83 741 0 36 742 4 38 743 114 107 744 118 3 745 119 5 746 119 5 747 123 6 748 126 8 749 126 8 750 130 9 751 134 11 752 134 11 753 133 10 754 138 74 755 155 14 756 154 13 757 160 16 758 160 16 759 159 15 760 165 18 761 165 18 762 164 17 763 168 20 764 168 20 765 172 21 766 177 23 767 177 23 768 181 24 769 183 26 770 183 26 771 182 25 772 187 78 773 192 29 774 195 30 775 199 32 776 199 32 777 203 33 778 207 35 779 207 35 780 212 79 781 213 81 782 4 38 783 9 40 784 7 82 785 9 40 786 14 42 787 15 85 788 14 42 789 19 44 790 20 86 791 19 44 792 24 45 793 25 87 794 24 45 795 30 46 796 31 88 797 30 46 798 34 2 799 35 89 800 34 2 801 39 48 802 40 90 803 39 48 804 44 49 805 45 91 806 44 49 807 47 51 808 48 92 809 47 51 810 52 53 811 53 93 812 52 53 813 58 55 814 57 94 815 58 55 816 62 56 817 63 95 818 62 56 819 66 58 820 67 96 821 66 58 822 71 60 823 72 97 824 71 60 825 76 62 826 77 98 827 76 62 828 81 63 829 82 99 830 81 63 831 84 65 832 82 99 833 84 65 834 89 67 835 88 100 836 89 67 837 95 102 838 94 101 839 95 102 840 98 68 841 99 103 842 98 68 843 102 70 844 103 104 845 102 70 846 108 72 847 109 105 848 108 72 849 114 107 850 115 106 851 114 107 852 119 5 853 120 108 854 119 5 855 126 8 856 127 109 857 126 8 858 134 11 859 131 110 860 134 11 861 138 74 862 136 111 863 138 74 864 144 75 865 141 112 866 144 75 867 146 77 868 147 113 869 146 77 870 151 12 871 152 114 872 151 12 873 155 14 874 152 114 875 155 14 876 160 16 877 157 115 878 160 16 879 165 18 880 162 116 881 165 18 882 168 20 883 169 117 884 168 20 885 177 23 886 173 118 887 177 23 888 183 26 889 184 120 890 183 26 891 187 78 892 184 120 893 187 78 894 192 29 895 191 121 896 192 29 897 199 32 898 200 123 899 199 32 900 207 35 901 204 124 902 209 125 903 213 81 904 214 153 905 1 83 906 7 82 907 8 126 908 12 84 909 15 85 910 16 128 911 15 85 912 20 86 913 21 127 914 31 88 915 35 89 916 36 130 917 35 89 918 40 90 919 41 129 920 53 93 921 57 94 922 54 132 923 57 94 924 63 95 925 59 131 926 67 96 927 72 97 928 73 134 929 72 97 930 77 98 931 78 133 932 77 98 933 82 99 934 83 135 935 94 101 936 99 103 937 100 136 938 103 104 939 109 105 940 107 138 941 109 105 942 115 106 943 116 139 944 120 108 945 127 109 946 128 140 947 131 110 948 136 111 949 137 142 950 136 111 951 141 112 952 139 141 953 147 113 954 152 114 955 153 144 956 157 115 957 162 116 958 163 146 959 169 117 960 173 118 961 174 148 962 173 118 963 178 119 964 179 147 965 178 119 966 184 120 967 185 149 968 184 120 969 191 121 970 188 150 971 191 121 972 196 122 973 197 152 974 204 124 975 209 125 976 210 154 977 8 126 978 12 84 979 13 156 980 21 127 981 25 87 982 26 158 983 25 87 984 31 88 985 32 157 986 41 129 987 45 91 988 46 160 989 45 91 990 48 92 991 49 159 992 48 92 993 53 93 994 54 132 995 59 131 996 63 95 997 64 162 998 63 95 999 67 96 1000 68 161 1001 83 135 1002 82 99 1003 85 164 1004 82 99 1005 88 100 1006 85 164 1007 88 100 1008 94 101 1009 90 163 1010 100 136 1011 103 104 1012 104 166 1013 116 139 1014 120 108 1015 121 167 1016 128 140 1017 131 110 1018 132 168 1019 145 143 1020 147 113 1021 148 169 1022 153 144 1023 157 115 1024 158 170 1025 166 145 1026 169 117 1027 170 171 1028 197 152 1029 200 123 1030 201 173 1031 200 123 1032 204 124 1033 201 173 1034 210 154 1035 214 153 1036 215 210 1037 3 211 1038 2 155 1039 5 175 1040 2 155 1041 8 126 1042 5 175 1043 8 126 1044 13 156 1045 10 174 1046 13 156 1047 16 128 1048 17 176 1049 16 128 1050 21 127 1051 22 177 1052 21 127 1053 26 158 1054 22 177 1055 26 158 1056 32 157 1057 27 178 1058 32 157 1059 36 130 1060 33 1 1061 36 130 1062 41 129 1063 37 179 1064 41 129 1065 46 160 1066 42 180 1067 46 160 1068 49 159 1069 50 181 1070 49 159 1071 54 132 1072 55 182 1073 54 132 1074 59 131 1075 60 183 1076 59 131 1077 64 162 1078 65 184 1079 64 162 1080 68 161 1081 69 185 1082 68 161 1083 73 134 1084 74 186 1085 73 134 1086 78 133 1087 79 187 1088 78 133 1089 83 135 1090 79 187 1091 83 135 1092 85 164 1093 86 188 1094 85 164 1095 90 163 1096 91 189 1097 90 163 1098 96 165 1099 97 190 1100 96 165 1101 100 136 1102 97 190 1103 100 136 1104 104 166 1105 105 192 1106 104 166 1107 107 138 1108 105 192 1109 107 138 1110 113 137 1111 110 193 1112 113 137 1113 116 139 1114 117 194 1115 116 139 1116 121 167 1117 122 4 1118 121 167 1119 128 140 1120 124 195 1121 128 140 1122 132 168 1123 129 196 1124 132 168 1125 137 142 1126 135 197 1127 137 142 1128 139 141 1129 140 73 1130 139 141 1131 145 143 1132 142 198 1133 145 143 1134 148 169 1135 149 199 1136 148 169 1137 153 144 1138 149 199 1139 153 144 1140 158 170 1141 156 200 1142 158 170 1143 163 146 1144 161 201 1145 163 146 1146 166 145 1147 167 202 1148 166 145 1149 170 171 1150 171 19 1151 170 171 1152 174 148 1153 175 203 1154 174 148 1155 179 147 1156 180 204 1157 179 147 1158 185 149 1159 186 205 1160 185 149 1161 188 150 1162 189 206 1163 188 150 1164 193 151 1165 194 28 1166 193 151 1167 197 152 1168 198 207 1169 197 152 1170 201 173 1171 202 31 1172 201 173 1173 208 172 1174 205 208 1175 208 172 1176 210 154 1177 211 209 1178 0 36 1179 3 211 1180 6 37 1181 98 68 1182 97 190 1183 101 191 1184 118 3 1185 117 194 1186 122 4 1187 125 7 1188 124 195 1189 129 196 1190 130 9 1191 129 196 1192 135 197 1193 133 10 1194 135 197 1195 140 73 1196 154 13 1197 156 200 1198 161 201 1199 159 15 1200 161 201 1201 167 202 1202 164 17 1203 167 202 1204 171 19 1205 176 22 1206 175 203 1207 180 204 1208 181 24 1209 180 204 1210 186 205 1211 182 25 1212 186 205 1213 190 27 1214 195 30 1215 198 207 1216 202 31 1217 206 34 1218 205 208 1219 211 209 1220 212 79 1221 211 209 1222 216 80 1223 6 37 1224 5 175 1225 11 39 1226 11 39 1227 10 174 1228 18 41 1229 18 41 1230 17 176 1231 23 43 1232 19 44 1233 22 177 1234 28 212 1235 29 0 1236 27 178 1237 33 1 1238 38 47 1239 37 179 1240 43 213 1241 44 49 1242 42 180 1243 51 50 1244 51 50 1245 50 181 1246 56 52 1247 56 52 1248 55 182 1249 61 54 1250 62 56 1251 60 183 1252 65 184 1253 70 57 1254 69 185 1255 75 59 1256 75 59 1257 74 186 1258 80 61 1259 81 63 1260 79 187 1261 87 64 1262 87 64 1263 86 188 1264 92 66 1265 106 69 1266 105 192 1267 111 71 1268 144 75 1269 142 198 1270 150 76 1271 151 12 1272 149 199 1273 154 13 1274 190 27 1275 189 206 1276 194 28 1277</p>
        </triangles>
      </mesh>
    </geometry>
  </library_geometries>
  <library_visual_scenes>
    <visual_scene id="Scene" name="Scene">
      <node id="Circle" name="Circle" type="NODE">
        <matrix sid="transform">7.54979e-9 0 0.1 0 0 0.1 0 0.4 -0.1 0 7.54979e-9 0 0 0 0 1</matrix>
        <instance_geometry url="#Circle_001-mesh" name="Circle">
          <bind_material>
            <technique_common>
              <instance_material symbol="Material_002-material" target="#Material_002-material">
                <bind_vertex_input semantic="Circle_001-mesh-map-0" input_semantic="TEXCOORD" input_set="0"/>
              </instance_material>
            </technique_common>
          </bind_material>
        </instance_geometry>
      </node>
    </visual_scene>
  </library_visual_scenes>
  <scene>
    <instance_visual_scene url="#Scene"/>
  </scene>
</COLLADA>